HIERARCHY
ROOT hip
{
	OFFSET 0.000000 0.000000 0.000000 
	CHANNELS 6 Xposition Yposition Zposition Zrotation Yrotation Xrotation
	JOINT abdomen
	{
		OFFSET 0.000000 20.688101 -0.731520 
		CHANNELS 3 Zrotation Xrotation Yrotation
		JOINT chest
		{
			OFFSET 0.000000 11.704300 -0.487680 
			CHANNELS 3 Zrotation Xrotation Yrotation
			JOINT neck
			{
				OFFSET 0.000000 22.189400 -2.194560 
				CHANNELS 3 Zrotation Xrotation Yrotation
				JOINT head
				{
					OFFSET -0.243840 7.071330 1.219200 
					CHANNELS 3 Zrotation Xrotation Yrotation
					End Site
					{
						OFFSET 1.000000 0.000000 0.000000 
					}
				}
			}
			JOINT rCollar
			{
				OFFSET -2.682240 19.263399 -4.876800 
				CHANNELS 3 Zrotation Xrotation Yrotation
				JOINT rShldr
				{
					OFFSET -8.778240 -1.950730 1.463040 
					CHANNELS 3 Zrotation Xrotation Yrotation
					JOINT rForeArm
					{
						OFFSET -28.174200 -1.711500 0.487680 
						CHANNELS 3 Zrotation Xrotation Yrotation
						JOINT rHand
						{
							OFFSET -22.587900 0.773209 7.071360 
							CHANNELS 3 Zrotation Xrotation Yrotation
							End Site
							{
								OFFSET -1.782710 -1.182140 1.430490 
							}
						}
					}
				}
			}
			JOINT lCollar
			{
				OFFSET 2.682240 19.263399 -4.876800 
				CHANNELS 3 Zrotation Xrotation Yrotation
				JOINT lShldr
				{
					OFFSET 8.778240 -1.950730 1.463040 
					CHANNELS 3 Zrotation Xrotation Yrotation
					JOINT lForeArm
					{
						OFFSET 28.174200 -1.711500 0.487680 
						CHANNELS 3 Zrotation Xrotation Yrotation
						JOINT lHand
						{
							OFFSET 22.587900 0.773209 7.071360 
							CHANNELS 3 Zrotation Xrotation Yrotation
							End Site
							{
								OFFSET 1.782710 -1.182140 1.430490 
							}
						}
					}
				}
			}
		}
	}
	JOINT rButtock
	{
		OFFSET -8.778240 4.350840 1.219200 
		CHANNELS 3 Zrotation Xrotation Yrotation
		JOINT rThigh
		{
			OFFSET 0.000000 -1.706870 -2.194560 
			CHANNELS 3 Zrotation Xrotation Yrotation
			JOINT rShin
			{
				OFFSET 0.000000 -36.819901 0.731520 
				CHANNELS 3 Zrotation Xrotation Yrotation
				JOINT rFoot
				{
					OFFSET 0.731520 -45.110401 -5.120640 
					CHANNELS 3 Zrotation Xrotation Yrotation
					End Site
					{
						OFFSET -1.122100 -3.699640 12.103000 
					}
				}
			}
		}
	}
	JOINT lButtock
	{
		OFFSET 8.778240 4.350840 1.219200 
		CHANNELS 3 Zrotation Xrotation Yrotation
		JOINT lThigh
		{
			OFFSET 0.000000 -1.706870 -2.194560 
			CHANNELS 3 Zrotation Xrotation Yrotation
			JOINT lShin
			{
				OFFSET 0.000000 -36.819901 0.731520 
				CHANNELS 3 Zrotation Xrotation Yrotation
				JOINT lFoot
				{
					OFFSET -0.731520 -45.110401 -5.120640 
					CHANNELS 3 Zrotation Xrotation Yrotation
					End Site
					{
						OFFSET 1.122100 -3.699640 12.103000 
					}
				}
			}
		}
	}
}
MOTION
Frames: 15
Frame Time: 0.008333
-6.723960 85.684196 3.995130 -160.908997 82.352097 -153.298996 4.775320 -0.430203 0.409990 1.493490 -2.657390 0.210204 0.985705 -6.747860 -0.483348 -1.756620 32.990799 2.440310 -0.000000 -0.000000 -0.000000 69.798798 55.356602 10.381400 -28.184500 -31.867901 70.249702 -3.761240 -46.938900 -8.649520 -0.000000 -0.000000 -0.000000 -65.325600 62.481499 -23.340900 25.614799 -22.483700 -55.223400 2.984030 -43.077400 7.551190 -0.000000 0.000000 -0.000000 2.839150 -7.623470 4.479770 0.011307 5.771290 0.131399 -1.492140 -1.715120 -19.882299 0.000000 0.000000 0.000000 4.273180 -18.229900 -22.266800 0.114718 18.228600 -0.309931 2.956440 -6.024380 11.496100 
-6.727250 85.677803 3.988540 -160.968994 82.435303 -153.322006 4.745460 -0.493691 0.350235 1.416420 -2.652280 0.190573 1.139980 -6.751650 -0.364362 -2.109290 33.031399 2.728040 -0.000000 -0.000000 -0.000000 69.826500 55.560001 10.488900 -28.184999 -31.869400 70.250603 -3.769490 -46.975601 -8.660770 -0.000000 -0.000000 -0.000000 -64.978798 62.659698 -23.882299 25.626400 -22.511200 -55.271702 2.844930 -42.303799 7.347220 -0.000000 0.000000 -0.000000 2.810480 -7.610470 4.597400 0.011664 5.761560 0.130039 -1.484420 -1.691090 -19.894699 0.000000 0.000000 0.000000 4.255570 -18.174299 -22.217800 0.114435 18.204599 -0.309327 2.963370 -5.997980 11.559600 
-6.709770 85.675400 3.975820 -160.854004 82.591599 -153.210999 4.705990 -0.554553 0.301163 1.312930 -2.661580 0.173463 1.314450 -6.727900 -0.252017 -2.468100 32.997898 2.987080 -0.000000 -0.000000 -0.000000 69.932602 55.723301 10.548800 -28.186899 -31.880501 70.264900 -3.765220 -46.956299 -8.654910 -0.000000 -0.000000 -0.000000 -64.781403 62.825901 -24.150000 25.625200 -22.508200 -55.271099 2.681600 -41.344501 7.102410 -0.000000 0.000000 -0.000000 2.775290 -7.605550 4.746040 0.011929 5.747070 0.128108 -1.468050 -1.639740 -19.911200 0.000000 0.000000 0.000000 4.236080 -18.107901 -22.154499 0.114489 18.163700 -0.308266 2.971980 -5.960490 11.644300 
-6.687940 85.674103 3.965570 -160.617996 82.777802 -152.981995 4.662750 -0.608767 0.259734 1.210770 -2.672010 0.158647 1.481870 -6.693770 -0.151721 -2.819310 32.935398 3.218120 -0.000000 -0.000000 -0.000000 70.017998 55.886200 10.611700 -28.188999 -31.892599 70.281097 -3.761000 -46.937500 -8.649150 -0.000000 -0.000000 -0.000000 -64.634598 63.017899 -24.265100 25.632799 -22.526501 -55.300999 2.556270 -40.564899 6.909900 -0.000000 0.000000 -0.000000 2.739900 -7.603820 4.914560 0.012122 5.731180 0.125917 -1.447260 -1.575420 -19.927401 0.000000 0.000000 0.000000 4.217700 -18.033300 -22.085501 0.114614 18.117901 -0.307130 2.983760 -5.924870 11.744100 
-6.661370 85.677002 3.967580 -160.085007 82.980003 -152.500000 4.621590 -0.652310 0.222907 1.137710 -2.670280 0.145901 1.615110 -6.666400 -0.068866 -3.150160 32.888599 3.422360 -0.000000 -0.000000 -0.000000 69.982101 56.088001 10.729500 -28.189699 -31.897100 70.287300 -3.769380 -46.975399 -8.660660 -0.000000 -0.000000 -0.000000 -64.435799 63.272499 -24.352200 25.670700 -22.617500 -55.441101 2.519300 -40.331402 6.852850 -0.000000 0.000000 -0.000000 2.710600 -7.600410 5.091830 0.012265 5.717290 0.123774 -1.426280 -1.512490 -19.938999 0.000000 0.000000 0.000000 4.203460 -17.953300 -22.019501 0.114546 18.079399 -0.306301 3.000280 -5.904040 11.852600 
-6.646960 85.678703 3.965570 -159.731003 83.140602 -152.177002 4.580100 -0.682195 0.184961 1.105270 -2.654690 0.133931 1.707250 -6.648070 -0.008186 -3.468430 32.861000 3.594990 -0.000000 -0.000000 -0.000000 69.767303 56.357101 10.939100 -28.188200 -31.888901 70.276901 -3.798460 -47.105801 -8.700470 -0.000000 -0.000000 -0.000000 -64.187202 63.617802 -24.368299 25.744699 -22.796801 -55.726501 2.607150 -40.899899 6.990430 -0.000000 0.000000 -0.000000 2.686300 -7.590150 5.279550 0.012360 5.705490 0.121664 -1.405530 -1.452380 -19.944500 0.000000 0.000000 0.000000 4.190190 -17.860600 -21.965099 0.114141 18.049801 -0.305884 3.024380 -5.902680 11.978900 
-6.636450 85.680000 3.965680 -159.259995 83.370499 -151.729996 4.536540 -0.701205 0.149156 1.097270 -2.631710 0.123270 1.772690 -6.630420 0.034298 -3.777260 32.831699 3.737090 -0.000000 -0.000000 -0.000000 69.434196 56.666100 11.208100 -28.185400 -31.873501 70.257401 -3.840380 -47.291599 -8.757640 -0.000000 -0.000000 -0.000000 -63.939400 64.028603 -24.268000 25.840500 -23.032700 -56.111698 2.792160 -42.021599 7.271760 -0.000000 0.000000 -0.000000 2.664530 -7.576910 5.482090 0.012396 5.694250 0.119453 -1.383010 -1.388230 -19.946400 0.000000 0.000000 0.000000 4.177580 -17.756500 -21.915501 0.113564 18.023100 -0.305673 3.054520 -5.913450 12.122700 
-6.640310 85.677002 3.975360 -158.468994 83.654099 -150.908005 4.497710 -0.713972 0.125916 1.099950 -2.600310 0.116427 1.816380 -6.614610 0.066275 -4.057650 32.809200 3.859220 -0.000000 -0.000000 -0.000000 69.060699 56.970798 11.483300 -28.182699 -31.858299 70.238098 -3.883520 -47.480301 -8.816230 -0.000000 -0.000000 -0.000000 -63.653099 64.460999 -24.179800 25.948799 -23.304600 -56.557201 3.022240 -43.306599 7.609830 -0.000000 0.000000 -0.000000 2.649520 -7.569370 5.692350 0.012379 5.684480 0.117280 -1.359340 -1.321950 -19.946100 0.000000 0.000000 0.000000 4.172960 -17.656300 -21.856501 0.113010 18.000500 -0.305586 3.085790 -5.931230 12.263800 
-6.623560 85.682404 3.972240 -158.082001 83.771500 -150.589005 4.470420 -0.725125 0.125668 1.099550 -2.559460 0.115910 1.843270 -6.601790 0.095433 -4.290660 32.801601 3.971900 -0.000000 -0.000000 -0.000000 68.728600 57.227798 11.708400 -28.181299 -31.850700 70.228600 -3.915700 -47.619400 -8.859770 -0.000000 -0.000000 -0.000000 -63.280701 64.871002 -24.239799 26.061501 -23.593700 -57.022400 3.226050 -44.366600 7.901320 -0.000000 0.000000 -0.000000 2.645630 -7.576220 5.903230 0.012313 5.677100 0.115283 -1.335150 -1.255450 -19.944901 0.000000 0.000000 0.000000 4.183650 -17.575399 -21.774000 0.112672 17.982800 -0.305539 3.113180 -5.950930 12.382200 
-6.611030 85.687500 3.990330 -157.013000 83.896004 -149.572998 4.458090 -0.736246 0.156231 1.095760 -2.496760 0.123775 1.846680 -6.596120 0.125438 -4.456290 32.813801 4.079860 -0.000000 -0.000000 -0.000000 68.417999 57.438000 11.895000 -28.182199 -31.856300 70.236198 -3.937640 -47.713600 -8.889390 -0.000000 -0.000000 -0.000000 -62.775902 65.267700 -24.494600 26.181200 -23.908600 -57.521000 3.381120 -45.144001 8.120810 -0.000000 0.000000 -0.000000 2.659270 -7.601300 6.121070 0.012211 5.673420 0.113560 -1.311900 -1.193490 -19.942301 0.000000 0.000000 0.000000 4.219660 -17.519600 -21.647499 0.112674 17.974199 -0.305612 3.135340 -5.976150 12.466600 
-6.621000 85.686096 4.023150 -155.485992 84.131104 -148.007004 4.456580 -0.744747 0.210365 1.094760 -2.416800 0.138219 1.826650 -6.595700 0.151654 -4.569810 32.840401 4.176920 -0.000000 -0.000000 -0.000000 68.101196 57.620701 12.062600 -28.184601 -31.869801 70.254402 -3.954250 -47.784698 -8.911790 -0.000000 -0.000000 -0.000000 -62.165100 65.666496 -24.877800 26.307699 -24.250799 -58.068802 3.522120 -45.831001 8.318900 -0.000000 0.000000 -0.000000 2.686640 -7.639430 6.346940 0.012068 5.672590 0.112017 -1.288830 -1.133630 -19.937901 0.000000 0.000000 0.000000 4.274360 -17.480200 -21.490200 0.112887 17.972700 -0.305816 3.154950 -6.007960 12.529800 
-6.630070 85.687103 4.036480 -154.667007 84.363701 -147.162003 4.461330 -0.749014 0.275907 1.092540 -2.344020 0.155967 1.798190 -6.592610 0.169312 -4.665120 32.875099 4.257330 -0.000000 -0.000000 -0.000000 67.851196 57.760399 12.163600 -28.186899 -31.882900 70.271103 -3.959220 -47.806000 -8.918510 -0.000000 -0.000000 -0.000000 -61.505798 66.032997 -25.358299 26.431200 -24.595400 -58.626900 3.645940 -46.415501 8.491220 -0.000000 0.000000 -0.000000 2.716780 -7.685770 6.565880 0.011859 5.672300 0.110503 -1.263260 -1.067000 -19.933201 0.000000 0.000000 0.000000 4.330190 -17.450001 -21.337799 0.113132 17.970900 -0.305963 3.173000 -6.037540 12.587200 
-6.635720 85.691803 4.038840 -154.264999 84.525200 -146.755005 4.467730 -0.747430 0.340695 1.085140 -2.302810 0.173745 1.776290 -6.578970 0.173643 -4.776010 32.911400 4.315260 -0.000000 -0.000000 -0.000000 67.741501 57.841702 12.149700 -28.187901 -31.886900 70.274597 -3.946290 -47.751202 -8.901140 -0.000000 -0.000000 -0.000000 -60.860600 66.332901 -25.900101 26.544300 -24.920099 -59.154800 3.749360 -46.885601 8.633260 -0.000000 0.000000 -0.000000 2.738630 -7.735500 6.762880 0.011562 5.670240 0.108864 -1.232510 -0.984747 -19.929899 0.000000 0.000000 0.000000 4.369620 -17.422300 -21.226299 0.113226 17.961500 -0.305865 3.190470 -6.056070 12.654300 
-6.653090 85.694199 4.058870 -152.906006 84.742798 -145.343002 4.478260 -0.734327 0.415510 1.069110 -2.308940 0.194800 1.749780 -6.557010 0.152775 -4.890860 32.966301 4.330760 -0.000000 0.000000 -0.000000 67.844902 57.830700 11.951600 -28.187201 -31.879601 70.261299 -3.905100 -47.574600 -8.845570 -0.000000 0.000000 -0.000000 -60.276901 66.542000 -26.474600 26.654400 -25.244801 -59.671398 3.827680 -47.231098 8.739730 -0.000000 0.000000 -0.000000 2.748250 -7.783620 6.936420 0.011150 5.650940 0.106776 -1.185970 -0.862565 -19.924601 0.000000 0.000000 0.000000 4.389010 -17.395100 -21.168501 0.113131 17.940399 -0.305454 3.207670 -6.060310 12.736000 
-6.674160 85.703300 4.081240 -151.087006 84.968102 -143.457001 4.494050 -0.712312 0.502164 1.047410 -2.346290 0.219507 1.715740 -6.529490 0.112788 -4.998410 33.036999 4.313000 -0.000000 0.000000 -0.000000 68.103699 57.744801 11.614500 -28.185499 -31.865400 70.237801 -3.842800 -47.303200 -8.761070 -0.000000 0.000000 -0.000000 -59.715099 66.682602 -27.102800 26.762400 -25.573299 -60.188999 3.880050 -47.461201 8.810970 -0.000000 0.000000 -0.000000 2.751850 -7.833950 7.093670 0.010641 5.620590 0.104413 -1.128390 -0.712485 -19.917900 0.000000 0.000000 0.000000 4.397520 -17.372000 -21.144300 0.112940 17.912399 -0.304836 3.223990 -6.055280 12.823600 
